<svg width="167" height="48" viewBox="0 0 167 48" fill="none" xmlns="http://www.w3.org/2000/svg">
<path d="M6.21821 46C6.21821 47.1046 5.32278 48 4.21821 48H2C0.895429 48 0 47.1046 0 46V4.06861C0 2.96404 0.89543 2.0686 2 2.0686H4.21821C5.32278 2.0686 6.21821 2.96403 6.21821 4.0686V46Z" fill="black"/>
<path d="M47.7868 2.0686C48.8913 2.0686 49.7868 2.96403 49.7868 4.0686V5.29318C49.7868 6.39775 48.8913 7.29318 47.7868 7.29318H34.9464V46C34.9464 47.1046 34.051 48 32.9464 48H30.7282C29.6236 48 28.7282 47.1046 28.7282 46V7.29318H15.8237C14.7191 7.29318 13.8237 6.39775 13.8237 5.29318V4.0686C13.8237 2.96403 14.7191 2.0686 15.8237 2.0686H47.7868Z" fill="black"/>
<path d="M53.4814 2.3125H54.5439C54.7856 2.3125 54.9398 2.425 55.0064 2.65L59.4689 17.1875C59.5189 17.3542 59.5606 17.5333 59.5939 17.725C59.6356 17.9167 59.6773 18.1167 59.7189 18.325C59.7606 18.1167 59.8023 17.9167 59.8439 17.725C59.8856 17.5333 59.9356 17.3542 59.9939 17.1875L64.9939 2.65C65.0273 2.55833 65.0856 2.47917 65.1689 2.4125C65.2523 2.34583 65.3523 2.3125 65.4689 2.3125H65.8189C65.9356 2.3125 66.0314 2.34583 66.1064 2.4125C66.1814 2.47083 66.2398 2.55 66.2814 2.65L71.2814 17.1875C71.3398 17.3542 71.3898 17.5292 71.4314 17.7125C71.4814 17.8958 71.5273 18.0917 71.5689 18.3C71.6106 18.1 71.6481 17.9083 71.6814 17.725C71.7148 17.5333 71.7564 17.3542 71.8064 17.1875L76.2689 2.65C76.2939 2.55833 76.3481 2.47917 76.4314 2.4125C76.5231 2.34583 76.6273 2.3125 76.7439 2.3125H77.7189L72.1564 20H71.0064L65.7814 4.65C65.7148 4.45 65.6564 4.2375 65.6064 4.0125C65.5564 4.2375 65.4981 4.45 65.4314 4.65L60.1939 20H59.0564L53.4814 2.3125Z" fill="black"/>
<path d="M91.1766 2.3125V3.375H81.8641V10.525H89.6141V11.5625H81.8641V18.9375H91.1766V20H80.5766V2.3125H91.1766Z" fill="black"/>
<path d="M95.3471 20V2.3125H100.435C101.443 2.3125 102.314 2.4125 103.047 2.6125C103.789 2.8125 104.401 3.10833 104.885 3.5C105.368 3.88333 105.726 4.35417 105.96 4.9125C106.201 5.47083 106.322 6.10417 106.322 6.8125C106.322 7.27917 106.239 7.72917 106.072 8.1625C105.914 8.59583 105.68 8.99583 105.372 9.3625C105.064 9.72917 104.685 10.05 104.235 10.325C103.793 10.5917 103.285 10.7958 102.71 10.9375C104.101 11.1458 105.172 11.6083 105.922 12.325C106.672 13.0417 107.047 13.9875 107.047 15.1625C107.047 15.9125 106.914 16.5875 106.647 17.1875C106.38 17.7875 105.993 18.2958 105.485 18.7125C104.976 19.1292 104.351 19.45 103.61 19.675C102.868 19.8917 102.026 20 101.085 20H95.3471ZM96.6221 11.525V18.975H101.06C102.618 18.975 103.793 18.6417 104.585 17.975C105.376 17.3 105.772 16.3542 105.772 15.1375C105.772 14.5792 105.664 14.0792 105.447 13.6375C105.239 13.1875 104.935 12.8083 104.535 12.5C104.135 12.1833 103.643 11.9417 103.06 11.775C102.476 11.6083 101.814 11.525 101.072 11.525H96.6221ZM96.6221 10.5875H100.46C101.276 10.5875 101.972 10.4833 102.547 10.275C103.13 10.0667 103.605 9.79167 103.972 9.45C104.347 9.10833 104.622 8.72083 104.797 8.2875C104.972 7.85417 105.06 7.40833 105.06 6.95C105.06 5.75833 104.68 4.85833 103.922 4.25C103.172 3.63333 102.01 3.325 100.435 3.325H96.6221V10.5875Z" fill="black"/>
<path d="M64.4439 31.4625C64.3689 31.6042 64.2606 31.675 64.1189 31.675C64.0106 31.675 63.8689 31.6 63.6939 31.45C63.5273 31.2917 63.2981 31.1208 63.0064 30.9375C62.7148 30.7458 62.3481 30.5708 61.9064 30.4125C61.4731 30.2542 60.9356 30.175 60.2939 30.175C59.6523 30.175 59.0856 30.2667 58.5939 30.45C58.1106 30.6333 57.7023 30.8833 57.3689 31.2C57.0439 31.5167 56.7939 31.8833 56.6189 32.3C56.4523 32.7167 56.3689 33.1542 56.3689 33.6125C56.3689 34.2125 56.4939 34.7083 56.7439 35.1C57.0023 35.4917 57.3398 35.825 57.7564 36.1C58.1731 36.375 58.6439 36.6083 59.1689 36.8C59.7023 36.9833 60.2481 37.1667 60.8064 37.35C61.3648 37.5333 61.9064 37.7375 62.4314 37.9625C62.9648 38.1792 63.4398 38.4542 63.8564 38.7875C64.2731 39.1208 64.6064 39.5333 64.8564 40.025C65.1148 40.5083 65.2439 41.1125 65.2439 41.8375C65.2439 42.5792 65.1148 43.2792 64.8564 43.9375C64.6064 44.5875 64.2398 45.1542 63.7564 45.6375C63.2731 46.1208 62.6814 46.5042 61.9814 46.7875C61.2814 47.0625 60.4814 47.2 59.5814 47.2C58.4148 47.2 57.4106 46.9958 56.5689 46.5875C55.7273 46.1708 54.9898 45.6042 54.3564 44.8875L54.7064 44.3375C54.8064 44.2125 54.9231 44.15 55.0564 44.15C55.1314 44.15 55.2273 44.2 55.3439 44.3C55.4606 44.4 55.6023 44.525 55.7689 44.675C55.9356 44.8167 56.1356 44.975 56.3689 45.15C56.6023 45.3167 56.8731 45.475 57.1814 45.625C57.4898 45.7667 57.8439 45.8875 58.2439 45.9875C58.6439 46.0875 59.0981 46.1375 59.6064 46.1375C60.3064 46.1375 60.9314 46.0333 61.4814 45.825C62.0314 45.6083 62.4939 45.3167 62.8689 44.95C63.2523 44.5833 63.5439 44.15 63.7439 43.65C63.9439 43.1417 64.0439 42.6 64.0439 42.025C64.0439 41.4 63.9148 40.8875 63.6564 40.4875C63.4064 40.0792 63.0731 39.7417 62.6564 39.475C62.2398 39.2 61.7648 38.9708 61.2314 38.7875C60.7064 38.6042 60.1648 38.425 59.6064 38.25C59.0481 38.075 58.5023 37.8792 57.9689 37.6625C57.4439 37.4458 56.9731 37.1708 56.5564 36.8375C56.1398 36.4958 55.8023 36.075 55.5439 35.575C55.2939 35.0667 55.1689 34.4333 55.1689 33.675C55.1689 33.0833 55.2814 32.5125 55.5064 31.9625C55.7314 31.4125 56.0606 30.9292 56.4939 30.5125C56.9273 30.0875 57.4606 29.75 58.0939 29.5C58.7356 29.2417 59.4648 29.1125 60.2814 29.1125C61.1981 29.1125 62.0189 29.2583 62.7439 29.55C63.4773 29.8417 64.1439 30.2875 64.7439 30.8875L64.4439 31.4625Z" fill="black"/>
<path d="M79.5555 29.3125V30.375H70.243V37.525H77.993V38.5625H70.243V45.9375H79.5555V47H68.9555V29.3125H79.5555Z" fill="black"/>
<path d="M85.376 39V47H84.101V29.3125H88.6135C90.6551 29.3125 92.1801 29.7083 93.1885 30.5C94.1968 31.2833 94.701 32.4375 94.701 33.9625C94.701 34.6375 94.5843 35.2542 94.351 35.8125C94.1176 36.3708 93.7801 36.8625 93.3385 37.2875C92.9051 37.7042 92.3801 38.05 91.7635 38.325C91.1468 38.5917 90.451 38.7667 89.676 38.85C89.876 38.975 90.0551 39.1417 90.2135 39.35L96.301 47H95.1885C95.0551 47 94.9385 46.975 94.8385 46.925C94.7468 46.875 94.6551 46.7917 94.5635 46.675L88.901 39.5C88.7593 39.3167 88.6051 39.1875 88.4385 39.1125C88.2801 39.0375 88.0301 39 87.6885 39H85.376ZM85.376 38.05H88.451C89.2343 38.05 89.9343 37.9583 90.551 37.775C91.176 37.5833 91.701 37.3125 92.126 36.9625C92.5593 36.6125 92.8885 36.1917 93.1135 35.7C93.3385 35.2083 93.451 34.6542 93.451 34.0375C93.451 32.7792 93.0385 31.8458 92.2135 31.2375C91.3885 30.6292 90.1885 30.325 88.6135 30.325H85.376V38.05Z" fill="black"/>
<path d="M97.06 29.3125H98.0725C98.1891 29.3125 98.285 29.3458 98.36 29.4125C98.435 29.4708 98.4933 29.55 98.535 29.65L104.56 44.325C104.718 44.7083 104.847 45.1167 104.947 45.55C105.039 45.1 105.16 44.6917 105.31 44.325L111.322 29.65C111.364 29.5583 111.422 29.4792 111.497 29.4125C111.581 29.3458 111.681 29.3125 111.797 29.3125H112.797L105.497 47H104.36L97.06 29.3125Z" fill="black"/>
<path d="M117.361 47H116.073V29.3125H117.361V47Z" fill="black"/>
<path d="M135.931 44.025C136.015 44.025 136.086 44.0542 136.144 44.1125L136.644 44.65C136.277 45.0417 135.877 45.3958 135.444 45.7125C135.011 46.0208 134.536 46.2875 134.019 46.5125C133.511 46.7292 132.948 46.8958 132.331 47.0125C131.723 47.1375 131.052 47.2 130.319 47.2C129.094 47.2 127.969 46.9875 126.944 46.5625C125.927 46.1292 125.052 45.5208 124.319 44.7375C123.594 43.9458 123.027 42.9917 122.619 41.875C122.211 40.7583 122.006 39.5167 122.006 38.15C122.006 36.8083 122.215 35.5833 122.631 34.475C123.056 33.3667 123.648 32.4167 124.406 31.625C125.173 30.825 126.086 30.2083 127.144 29.775C128.211 29.3333 129.386 29.1125 130.669 29.1125C131.311 29.1125 131.898 29.1625 132.431 29.2625C132.965 29.3542 133.461 29.4917 133.919 29.675C134.386 29.85 134.823 30.0708 135.231 30.3375C135.64 30.6042 136.04 30.9125 136.431 31.2625L136.044 31.825C135.977 31.925 135.873 31.975 135.731 31.975C135.656 31.975 135.561 31.9333 135.444 31.85C135.327 31.7583 135.177 31.65 134.994 31.525C134.819 31.3917 134.602 31.25 134.344 31.1C134.094 30.9417 133.794 30.8 133.444 30.675C133.094 30.5417 132.69 30.4333 132.231 30.35C131.773 30.2583 131.252 30.2125 130.669 30.2125C129.594 30.2125 128.606 30.4 127.706 30.775C126.806 31.1417 126.031 31.6708 125.381 32.3625C124.731 33.0458 124.223 33.8792 123.856 34.8625C123.498 35.8375 123.319 36.9333 123.319 38.15C123.319 39.4 123.498 40.5167 123.856 41.5C124.215 42.4833 124.711 43.3167 125.344 44C125.977 44.675 126.723 45.1958 127.581 45.5625C128.448 45.9208 129.386 46.1 130.394 46.1C131.027 46.1 131.59 46.0583 132.081 45.975C132.581 45.8917 133.04 45.7667 133.456 45.6C133.873 45.4333 134.261 45.2292 134.619 44.9875C134.977 44.7458 135.331 44.4625 135.681 44.1375C135.723 44.1042 135.761 44.0792 135.794 44.0625C135.836 44.0375 135.881 44.025 135.931 44.025Z" fill="black"/>
<path d="M151.26 29.3125V30.375H141.947V37.525H149.697V38.5625H141.947V45.9375H151.26V47H140.66V29.3125H151.26Z" fill="black"/>
<path d="M163.98 31.4625C163.905 31.6042 163.797 31.675 163.655 31.675C163.547 31.675 163.405 31.6 163.23 31.45C163.063 31.2917 162.834 31.1208 162.543 30.9375C162.251 30.7458 161.884 30.5708 161.443 30.4125C161.009 30.2542 160.472 30.175 159.83 30.175C159.188 30.175 158.622 30.2667 158.13 30.45C157.647 30.6333 157.238 30.8833 156.905 31.2C156.58 31.5167 156.33 31.8833 156.155 32.3C155.988 32.7167 155.905 33.1542 155.905 33.6125C155.905 34.2125 156.03 34.7083 156.28 35.1C156.538 35.4917 156.876 35.825 157.293 36.1C157.709 36.375 158.18 36.6083 158.705 36.8C159.238 36.9833 159.784 37.1667 160.343 37.35C160.901 37.5333 161.443 37.7375 161.968 37.9625C162.501 38.1792 162.976 38.4542 163.393 38.7875C163.809 39.1208 164.143 39.5333 164.393 40.025C164.651 40.5083 164.78 41.1125 164.78 41.8375C164.78 42.5792 164.651 43.2792 164.393 43.9375C164.143 44.5875 163.776 45.1542 163.293 45.6375C162.809 46.1208 162.218 46.5042 161.518 46.7875C160.818 47.0625 160.018 47.2 159.118 47.2C157.951 47.2 156.947 46.9958 156.105 46.5875C155.263 46.1708 154.526 45.6042 153.893 44.8875L154.243 44.3375C154.343 44.2125 154.459 44.15 154.593 44.15C154.668 44.15 154.763 44.2 154.88 44.3C154.997 44.4 155.138 44.525 155.305 44.675C155.472 44.8167 155.672 44.975 155.905 45.15C156.138 45.3167 156.409 45.475 156.718 45.625C157.026 45.7667 157.38 45.8875 157.78 45.9875C158.18 46.0875 158.634 46.1375 159.143 46.1375C159.843 46.1375 160.468 46.0333 161.018 45.825C161.568 45.6083 162.03 45.3167 162.405 44.95C162.788 44.5833 163.08 44.15 163.28 43.65C163.48 43.1417 163.58 42.6 163.58 42.025C163.58 41.4 163.451 40.8875 163.193 40.4875C162.943 40.0792 162.609 39.7417 162.193 39.475C161.776 39.2 161.301 38.9708 160.768 38.7875C160.243 38.6042 159.701 38.425 159.143 38.25C158.584 38.075 158.038 37.8792 157.505 37.6625C156.98 37.4458 156.509 37.1708 156.093 36.8375C155.676 36.4958 155.338 36.075 155.08 35.575C154.83 35.0667 154.705 34.4333 154.705 33.675C154.705 33.0833 154.818 32.5125 155.043 31.9625C155.268 31.4125 155.597 30.9292 156.03 30.5125C156.463 30.0875 156.997 29.75 157.63 29.5C158.272 29.2417 159.001 29.1125 159.818 29.1125C160.734 29.1125 161.555 29.2583 162.28 29.55C163.013 29.8417 163.68 30.2875 164.28 30.8875L163.98 31.4625Z" fill="black"/>
</svg>
